<svg id="Layer_3" height="512" viewBox="0 0 64 64" width="512" xmlns="http://www.w3.org/2000/svg" data-name="Layer 3"><g fill="#f4b2b0"><path d="m53 2a9 9 0 1 0 9 9 9 9 0 0 0 -9-9zm-2 14-4-4 2-2 2 2 5-5 2 2z"/><path d="m22.378 31a12.013 12.013 0 0 1 4.622-6.748v2.748a4 4 0 0 1 -4 4z"/><path d="m18.281 31a15.87 15.87 0 0 1 1.719-4.752v-11.248h-4a3 3 0 0 0 -3 3v9a4 4 0 0 0 4 4z"/><path d="m27 19.609a16.066 16.066 0 0 0 -7 6.639v-11.248h4a3 3 0 0 1 3 3z"/></g><path d="m34 21a13 13 0 1 0 13 13 13.015 13.015 0 0 0 -13-13zm2.658 2.338a17.074 17.074 0 0 1 -13.32 13.32 10.617 10.617 0 0 1 -.144-4.678 5 5 0 0 0 4.806-4.98l2 1.5v2.5h2v-3a1 1 0 0 0 -.4-.8l-3.385-2.538a10.814 10.814 0 0 1 8.443-1.324zm-10.658 3.136v.526a3 3 0 0 1 -2.19 2.875 11.007 11.007 0 0 1 2.19-3.401zm8 18.526a11.007 11.007 0 0 1 -10-6.434 19.1 19.1 0 0 0 14.566-14.561 10.992 10.992 0 0 1 -4.566 20.995z" fill="#b3404a"/><path d="m56.121 46.707a3 3 0 0 0 -4.109-.109l-3.612-3.609a16.952 16.952 0 0 0 -9.561-25.277 18.99 18.99 0 1 0 -21.13 21.13 16.952 16.952 0 0 0 25.28 9.558l3.611 3.612a3 3 0 0 0 .109 4.109l4.929 4.929a6.657 6.657 0 1 0 9.414-9.414zm-53.121-26.707a16.995 16.995 0 0 1 33.766-2.754 16.356 16.356 0 0 0 -8.292.694l2.233-2.233a1 1 0 0 0 .293-.707v-3h-2v2.586l-1.506 1.506a3.993 3.993 0 0 0 -2.494-1.95v-1.142a4.971 4.971 0 0 0 -1.787-3.8l.08-.08a3.8 3.8 0 0 1 2.707-1.12v-2a5.787 5.787 0 0 0 -4.121 1.707l-.508.508a4.479 4.479 0 0 0 -2.742 0l-.508-.508a5.787 5.787 0 0 0 -4.121-1.707v2a3.8 3.8 0 0 1 2.707 1.121l.08.08a4.971 4.971 0 0 0 -1.787 3.799v1.142a3.993 3.993 0 0 0 -2.494 1.95l-1.506-1.506v-2.586h-2v3a1 1 0 0 0 .293.707l2.707 2.707v6.086l-3.6 2.7a1 1 0 0 0 -.4.8v3h2v-2.5l2-1.5a5.006 5.006 0 0 0 5 5h.128a17.138 17.138 0 0 0 -.128 2 16.933 16.933 0 0 0 .246 2.766 17.1 17.1 0 0 1 -14.246-16.766zm14.5 10h-.5a3 3 0 0 1 -3-3v-9a2 2 0 0 1 2-2h3v10.017a16.887 16.887 0 0 0 -1.5 3.983zm2.5-20a3 3 0 0 1 3 3v1h-6v-1a3 3 0 0 1 3-3zm1 6h3a2 2 0 0 1 2 2v1.008a17.115 17.115 0 0 0 -5 4.06zm-2 18a15 15 0 1 1 15 15 15.017 15.017 0 0 1 -15-15zm28.233 10.647 3.353 3.353-2.586 2.586-3.353-3.353a17.089 17.089 0 0 0 2.586-2.586zm9.11 16.353a4.625 4.625 0 0 1 -3.293-1.364l-4.929-4.929a1 1 0 0 1 0-1.414l5.172-5.172a1 1 0 0 1 1.414 0l4.929 4.929a4.657 4.657 0 0 1 -3.293 7.95z" fill="#b3404a"/><path d="m53 1a10 10 0 1 0 10 10 10.011 10.011 0 0 0 -10-10zm0 18a8 8 0 1 1 8-8 8.009 8.009 0 0 1 -8 8z" fill="#b3404a"/><path d="m55.293 6.293-4.293 4.293-1.293-1.293a1 1 0 0 0 -1.414 0l-2 2a1 1 0 0 0 0 1.414l4 4a1 1 0 0 0 1.414 0l7-7a1 1 0 0 0 0-1.414l-2-2a1 1 0 0 0 -1.414 0zm-4.293 8.293-2.586-2.586.586-.586 1.293 1.293a1 1 0 0 0 1.414 0l4.293-4.293.586.586z" fill="#b3404a"/></svg>