<?xml version="1.0" encoding="UTF-8" standalone="no"?>
<!DOCTYPE svg PUBLIC "-//W3C//DTD SVG 20010904//EN" "http://www.w3.org/TR/2001/REC-SVG-20010904/DTD/svg10.dtd">
<svg version="1.0" xmlns="http://www.w3.org/2000/svg" width="220.000000pt" height="220.000000pt" viewBox="0 0 220.000000 220.000000" preserveAspectRatio="xMidYMid meet">
<metadata>
Created by potrace 1.15, written by Peter Selinger 2001-2017
</metadata>
<g transform="translate(0.000000,220.000000) scale(0.100000,-0.100000)" fill="#000000" stroke="none">
<path d="M872 2160 c-13 -6 -55 -17 -94 -27 -38 -9 -72 -23 -75 -31 -3 -7 2 -40 12 -73 10 -32 16 -61 14 -62 -2 -2 -31 -19 -64 -37 -33 -19 -75 -45 -94 -57 l-35 -24 -53 53 -53 52 -31 -29 c-40 -38 -86 -84 -124 -124 l-29 -31 53 -54 54 -55 -25 -29 c-13 -16 -39 -59 -57 -96 -18 -36 -38 -66 -43 -66 -6 0 -34 7 -64 16 -31 9 -61 13 -68 11 -12 -5 -52 -140 -63 -214 -5 -30 -3 -31 50 -47 30 -9 61 -16 69 -16 11 0 14 -24 14 -120 0 -104 -2 -120 -16 -120 -9 0 -40 -7 -69 -16 -51 -15 -53 -16 -48 -47 6 -49 49 -201 58 -211 5 -5 35 -2 75 9 l67 18 18 -24 c10 -13 19 -28 19 -34 0 -5 18 -39 41 -74 l40 -64 -53 -54 -52 -53 89 -90 c49 -50 94 -90 100 -90 5 0 32 22 58 50 l48 50 47 -33 c26 -17 71 -43 99 -56 l51 -23 -19 -69 c-10 -38 -19 -71 -19 -73 0 -15 238 -72 250 -60 5 5 16 36 23 69 l14 60 110 1 c90 1 118 5 149 21 69 35 84 136 28 188 -21 20 -38 23 -151 28 -148 7 -216 23 -328 77 -180 87 -319 261 -372 463 -21 80 -21 234 0 314 54 207 192 377 382 467 109 52 192 71 305 70 172 -2 314 -59 451 -180 154 -137 228 -308 229 -527 0 -121 12 -157 60 -182 60 -31 128 -8 160 55 18 36 21 56 18 146 l-3 105 40 10 c105 27 108 29 101 63 -9 48 -54 207 -60 213 -3 4 -35 -2 -70 -11 -36 -10 -70 -15 -76 -11 -5 3 -17 22 -25 41 -8 19 -31 59 -51 89 l-36 56 52 55 53 56 -89 89 c-49 49 -93 89 -99 89 -5 0 -32 -23 -59 -50 l-48 -51 -32 24 c-17 13 -60 39 -96 57 -36 18 -66 33 -67 34 -1 1 7 33 18 70 11 38 17 72 12 76 -14 13 -222 63 -237 57 -8 -3 -20 -34 -28 -69 l-13 -63 -116 -2 -115 -1 -18 69 c-16 64 -20 69 -44 68 -15 0 -37 -4 -50 -9z"/>
<path d="M1073 1563 c-24 -2 -43 -8 -43 -12 0 -7 79 -114 234 -320 34 -45 33 -62 -11 -133 -58 -94 -111 -126 -238 -144 -38 -6 -43 -4 -70 32 -16 22 -34 44 -40 51 -5 7 -53 70 -105 142 -52 71 -98 130 -101 130 -11 1 -69 -148 -75 -192 -11 -77 12 -149 73 -234 109 -153 135 -181 199 -213 71 -35 123 -38 251 -14 l83 15 217 -216 c120 -119 230 -223 245 -231 79 -41 187 -22 251 44 41 42 57 85 57 152 -1 79 -26 114 -249 334 l-212 209 23 46 c18 36 23 63 23 126 0 93 -13 121 -124 265 -103 135 -146 161 -266 165 -44 1 -99 1 -122 -2z"/>
</g>
</svg>